<?xml version="1.0" encoding="UTF-8" standalone="no"?>
<!-- Created with Inkscape (http://www.inkscape.org/) -->

<svg
   xmlns:dc="http://purl.org/dc/elements/1.1/"
   xmlns:cc="http://creativecommons.org/ns#"
   xmlns:rdf="http://www.w3.org/1999/02/22-rdf-syntax-ns#"
   xmlns:svg="http://www.w3.org/2000/svg"
   xmlns="http://www.w3.org/2000/svg"
   xmlns:sodipodi="http://sodipodi.sourceforge.net/DTD/sodipodi-0.dtd"
   xmlns:inkscape="http://www.inkscape.org/namespaces/inkscape"
   width="206.39897mm"
   height="169.2587mm"
   viewBox="0 0 206.39897 169.2587"
   version="1.1"
   id="svg296"
   inkscape:version="0.92.5 (2060ec1f9f, 2020-04-08)"
   sodipodi:docname="actinia_Logo.svg">
  <defs
     id="defs290" />
  <sodipodi:namedview
     id="base"
     pagecolor="#ffffff"
     bordercolor="#666666"
     borderopacity="1.0"
     inkscape:pageopacity="0.0"
     inkscape:pageshadow="2"
     inkscape:zoom="0.35"
     inkscape:cx="-48.526131"
     inkscape:cy="213.24216"
     inkscape:document-units="mm"
     inkscape:current-layer="layer1"
     showgrid="false"
     fit-margin-top="0"
     fit-margin-left="0"
     fit-margin-right="0"
     fit-margin-bottom="0"
     inkscape:window-width="1920"
     inkscape:window-height="1055"
     inkscape:window-x="1920"
     inkscape:window-y="39"
     inkscape:window-maximized="1" />
  <metadata
     id="metadata293">
    <rdf:RDF>
      <cc:Work
         rdf:about="">
        <dc:format>image/svg+xml</dc:format>
        <dc:type
           rdf:resource="http://purl.org/dc/dcmitype/StillImage" />
        <dc:title></dc:title>
      </cc:Work>
    </rdf:RDF>
  </metadata>
  <g
     inkscape:label="Ebene 1"
     inkscape:groupmode="layer"
     id="layer1"
     transform="translate(-1.1219437,-35.994961)">
    <g
       transform="matrix(3.7957498,0,0,3.7957498,-137.24805,-566.30098)"
       style="display:inline"
       id="g277">
      <path
         id="path1"
         d="m 55.660066,158.86702 c -0.685907,0.3608 -1.025221,0.56801 -1.461126,0.89258 -0.469109,0.34962 -0.92277,0.75889 -1.233142,1.11241 -0.136187,0.15536 -0.268646,0.30557 -0.294391,0.33381 -0.02557,0.0282 -0.176671,0.24609 -0.335763,0.4842 -0.8173,1.2232 -1.283746,2.70332 -1.5009,4.763 -0.107245,1.01669 -0.136009,1.81109 -0.168147,4.66161 -0.02095,1.85104 -0.05291,3.18965 -0.08097,3.37716 -0.104759,0.7049 -0.140093,0.9075 -0.217331,1.24308 -0.04457,0.19372 -0.09801,0.40821 -0.118786,0.47657 -0.147196,0.48562 -0.239171,0.74219 -0.374471,1.04582 -0.04297,0.0966 -0.0783,0.18466 -0.0783,0.19549 0,0.0286 -0.297765,0.62802 -0.433242,0.87199 -0.370386,0.66708 -0.904304,1.44479 -1.669225,2.43094 -0.165129,0.21272 -0.423121,0.54529 -0.573513,0.739 -0.150391,0.19372 -0.377311,0.49202 -0.504265,0.663 -0.126777,0.17099 -0.280364,0.37607 -0.341267,0.4558 -0.13672,0.17933 -0.705084,1.02646 -0.705084,1.05096 0,0.01 -0.07653,0.144 -0.1701,0.29795 -0.168148,0.27681 -0.658564,1.22888 -0.658564,1.27842 0,0.014 -0.03924,0.11399 -0.087,0.22194 -0.04794,0.10796 -0.103162,0.23367 -0.122693,0.2793 -0.150924,0.35015 -0.454904,1.39934 -0.558065,1.92669 -0.115768,0.59215 -0.138851,0.72674 -0.181287,1.05665 -0.132281,1.03179 -0.166372,2.98954 -0.0625,3.59999 0.03977,0.23402 0.05682,0.24822 -1.33364,-1.11116 l -1.269008,-1.24042 0.02788,-0.29262 c 0.01527,-0.16104 0.05575,-0.45117 0.08984,-0.64489 0.05629,-0.32085 0.08558,-0.48669 0.16069,-0.91158 0.01421,-0.0799 0.04457,-0.22905 0.06765,-0.33151 0.02291,-0.10262 0.05824,-0.26118 0.07848,-0.35227 0.07493,-0.33878 0.378731,-1.57832 0.411402,-1.67828 0.01864,-0.057 0.05664,-0.1875 0.08487,-0.28995 0.02805,-0.10263 0.06534,-0.23314 0.08274,-0.29013 0.01758,-0.057 0.05522,-0.18751 0.08363,-0.29013 0.02859,-0.10246 0.08434,-0.28889 0.123936,-0.41425 0.03977,-0.12535 0.151102,-0.47976 0.247516,-0.78729 0.23633,-0.75427 0.330613,-1.04085 0.374647,-1.13957 0.02042,-0.0456 0.08328,-0.22266 0.139739,-0.39365 0.05646,-0.17098 0.161578,-0.46928 0.233311,-0.663 0.07191,-0.19371 0.14542,-0.39879 0.163531,-0.45579 0.03232,-0.10192 0.142047,-0.39666 0.208454,-0.55949 0.01847,-0.0454 0.130327,-0.33452 0.248581,-0.64222 0.118076,-0.30771 0.2342,-0.60601 0.257992,-0.66301 0.05309,-0.12766 0.115768,-0.28409 0.157672,-0.39364 0.0174,-0.0456 0.06001,-0.14809 0.09482,-0.22781 0.0348,-0.0799 0.103339,-0.24734 0.152345,-0.37234 0.04918,-0.125 0.135654,-0.32813 0.19194,-0.45153 0.18111,-0.39578 -0.0119,-0.40998 -0.245207,-0.0179 -0.07884,0.13246 -0.2793,0.46467 -0.445139,0.73811 -0.309306,0.50977 -0.38246,0.63494 -0.581325,0.9945 -0.06286,0.11399 -0.18182,0.32848 -0.264385,0.47657 -0.155185,0.27912 -1.125719,2.23084 -1.23616,2.48617 -0.03462,0.0797 -0.104049,0.23828 -0.154476,0.35227 -0.05043,0.11399 -0.115412,0.26314 -0.144532,0.3315 -0.02894,0.0684 -0.0815,0.18946 -0.116301,0.26936 -0.03498,0.0797 -0.113637,0.27557 -0.174539,0.43502 -0.06108,0.15962 -0.126067,0.32741 -0.144533,0.37287 -0.01847,0.0456 -0.0744,0.19478 -0.124468,0.3315 -0.05007,0.1369 -0.107068,0.28605 -0.126599,0.3315 -0.06694,0.15554 -0.333809,0.9835 -0.454194,1.40893 -0.235797,0.83399 -0.394179,1.52611 -0.497518,2.17455 -0.03818,0.23935 -0.09641,0.38051 -0.13601,0.32973 -0.0076,-0.01 -0.145065,-0.1765 -0.305222,-0.37021 -1.235628,-1.49487 -1.552036,-2.81412 -1.109916,-4.62948 0.169035,-0.69443 0.72497,-1.98545 1.060377,-2.46273 0.04244,-0.0606 0.07724,-0.12145 0.07724,-0.1353 0,-0.0138 0.06268,-0.12287 0.139206,-0.24219 0.07635,-0.11932 0.210229,-0.32884 0.29741,-0.46556 0.253198,-0.39737 1.311445,-1.85601 1.427745,-1.96823 0.0119,-0.0114 0.07244,-0.0891 0.134589,-0.17259 0.06232,-0.0834 0.137075,-0.17667 0.166195,-0.20721 0.02912,-0.0304 0.117543,-0.1392 0.196379,-0.24183 0.07884,-0.10245 0.15341,-0.19567 0.165662,-0.20721 0.01243,-0.0114 0.105825,-0.12323 0.207743,-0.24858 0.101918,-0.12536 0.195137,-0.23722 0.207211,-0.24858 0.01207,-0.0114 0.105292,-0.12323 0.20721,-0.24859 0.101918,-0.12535 0.194959,-0.23721 0.206855,-0.24875 0.0119,-0.0114 0.123758,-0.14187 0.248937,-0.28996 0.125001,-0.14808 0.236863,-0.27876 0.248404,-0.29013 0.01154,-0.0114 0.141691,-0.16051 0.28942,-0.3315 0.147728,-0.17081 0.278411,-0.32014 0.290307,-0.3315 0.121805,-0.11577 1.094647,-1.27877 1.351929,-1.61596 0.859914,-1.12714 1.739005,-2.66905 2.126259,-3.72943 0.02912,-0.0797 0.06871,-0.18235 0.08825,-0.22781 0.03516,-0.0829 0.338781,-1.00871 0.407496,-1.24308 0.0467,-0.15874 0.148083,-0.59003 0.253375,-1.07743 0.01971,-0.0913 0.0554,-0.30557 0.07937,-0.47656 0.02379,-0.17099 0.06534,-0.45064 0.09215,-0.62163 0.05451,-0.34606 0.07298,-2.19391 0.02379,-2.37218 -0.06499,-0.23651 -0.171166,-0.13779 -0.278766,0.25888 -0.02788,0.10263 -0.06499,0.23313 -0.08239,0.29013 -0.01758,0.057 -0.05487,0.1875 -0.08292,0.29013 -0.02805,0.10245 -0.06641,0.23296 -0.08505,0.28995 -0.01864,0.057 -0.09304,0.29937 -0.165129,0.53871 -0.165485,0.54795 -0.369854,1.16177 -0.538179,1.61614 -0.07191,0.19371 -0.14542,0.39879 -0.163531,0.45579 -0.03622,0.11435 -0.509592,1.30346 -0.610446,1.53322 -0.03498,0.0797 -0.08736,0.20081 -0.116478,0.26917 -0.155896,0.36702 -0.270776,0.61116 -0.632107,1.34554 -0.218219,0.4439 -0.486865,0.96272 -0.596951,1.15324 -0.109908,0.19052 -0.19993,0.35174 -0.19993,0.35831 0,0.0376 -0.653592,1.0879 -1.00711,1.61827 -0.561084,0.8418 -1.731903,2.39277 -2.017417,2.6726 -0.01154,0.0114 -0.158382,0.17916 -0.326352,0.37305 -0.167792,0.19372 -0.895603,0.93947 -1.6172,1.65733 -1.596781,1.58879 -1.746818,1.7612 -2.289968,2.63142 -0.09783,0.15696 -0.424364,0.81605 -0.492369,0.99432 -0.123581,0.32351 -0.203482,0.56481 -0.240414,0.72515 -0.02361,0.10263 -0.05416,0.23313 -0.06783,0.29013 -0.204902,0.85157 -0.166372,1.97462 0.09996,2.91089 0.02433,0.0856 0.06055,0.21609 0.08043,0.29013 0.279477,1.04067 1.156969,2.41958 2.246644,3.53074 l 0.526638,0.53676 0.02734,0.54049 c 0.01509,0.29741 0.04599,0.65253 0.06836,0.78925 0.07866,0.47958 0.131393,0.74787 0.191052,0.97373 0.03303,0.12535 0.07493,0.28391 0.09304,0.35227 0.04066,0.15323 0.159092,0.50977 0.2065,0.62145 0.01935,0.0456 0.05895,0.14827 0.08807,0.22799 0.748053,2.04867 2.359926,3.89509 4.150423,4.75465 0.28871,0.1385 0.291195,0.15182 0.0419,0.21716 -0.219462,0.0575 -0.263319,0.0701 -0.880511,0.25124 -0.432887,0.12696 -0.608492,0.1836 -0.766519,0.24663 -0.04563,0.0181 -0.148261,0.0554 -0.227985,0.0829 -0.07972,0.0273 -0.182352,0.0646 -0.227807,0.0829 -0.04563,0.0183 -0.194782,0.0756 -0.331501,0.12731 -0.136898,0.0519 -0.36577,0.14684 -0.508705,0.21129 -0.143112,0.0645 -0.269355,0.11719 -0.280542,0.11719 -0.02344,0 -0.568008,0.25462 -1.117018,0.5222 -0.51776,0.25249 -1.453847,0.76119 -1.643124,0.89294 -0.06055,0.0421 -0.121272,0.0765 -0.135299,0.0765 -0.01385,0 -0.122871,0.0628 -0.24219,0.13974 -0.119319,0.0769 -0.449932,0.28711 -0.734913,0.46733 -0.673834,0.42614 -1.201714,0.79848 -1.201714,0.84802 0,0.0945 0.140093,0.071 0.542973,-0.0904 0.23704,-0.095 0.477454,-0.1875 0.53445,-0.20561 0.057,-0.0181 0.262076,-0.0916 0.455792,-0.16336 0.569429,-0.21111 2.181303,-0.73953 2.672784,-0.87642 0.09109,-0.0252 0.212359,-0.0604 0.269356,-0.0779 0.05682,-0.0174 0.17809,-0.0524 0.269178,-0.0776 0.144355,-0.04 0.427738,-0.12181 0.870213,-0.25125 0.06836,-0.0201 0.366835,-0.0948 0.663002,-0.16619 0.296345,-0.0714 0.604053,-0.14649 0.683777,-0.16691 0.255861,-0.0655 0.76492,-0.17702 1.139568,-0.24965 0.13672,-0.0264 0.323156,-0.0641 0.414244,-0.0834 0.09126,-0.0194 0.286934,-0.0561 0.435195,-0.0813 0.148083,-0.0254 0.362574,-0.0629 0.476566,-0.0834 0.195136,-0.035 0.464315,-0.0765 1.06677,-0.16442 0.142579,-0.0208 0.445671,-0.057 0.673478,-0.0804 0.227985,-0.0236 0.610268,-0.0659 0.849438,-0.0941 0.600325,-0.0709 3.325843,-0.0721 3.874498,-0.002 1.253206,0.16034 1.594828,0.22852 2.734752,0.546 1.017053,0.2832 2.326012,1.01314 3.149172,1.75622 0.09126,0.0822 0.1891,0.15004 0.217686,0.15057 0.319605,0.006 -0.88708,-1.12128 -1.978708,-1.8482 -0.659629,-0.4391 -1.760135,-1.0206 -2.392952,-1.26421 -0.05131,-0.0197 -0.135122,-0.0529 -0.186436,-0.0735 -0.431999,-0.17419 -0.874119,-0.32067 -1.261019,-0.4178 -0.346593,-0.0872 -0.545814,-0.20756 -0.34322,-0.20756 0.158027,0 1.482434,-0.71397 2.298314,-1.23883 0.227274,-0.14631 1.04493,-0.73651 1.09802,-0.79262 0.01136,-0.0121 0.104581,-0.0861 0.20721,-0.16477 0.102629,-0.0787 0.195847,-0.1527 0.207211,-0.16478 0.01136,-0.0119 0.141869,-0.12393 0.289952,-0.24875 0.878558,-0.7406 1.486695,-1.52292 2.03677,-2.62059 0.139739,-0.27876 0.193539,-0.34233 0.41886,-0.49467 1.457931,-0.98616 3.007126,-2.63088 3.807026,-4.04194 0.598371,-1.05558 1.034631,-2.11152 1.366133,-3.30649 0.472127,-1.70207 0.636723,-4.07514 0.401814,-5.79266 -0.0451,-0.33008 -0.117189,-0.49769 -0.184838,-0.43004 -0.01403,0.014 -0.05078,0.33825 -0.0815,0.72071 -0.09091,1.12998 -0.210051,1.94018 -0.425429,2.89135 -0.0206,0.0913 -0.05771,0.25906 -0.08256,0.37305 -0.05273,0.24255 -0.100142,0.42117 -0.257992,0.97373 -0.02273,0.0797 -0.057,0.201 -0.07599,0.26936 -0.09304,0.33416 -0.432886,1.29387 -0.471949,1.33293 -0.01509,0.0153 -0.02752,0.0526 -0.02752,0.0833 0,0.0305 -0.03906,0.144 -0.087,0.25214 -0.04776,0.10795 -0.102096,0.23366 -0.120562,0.27912 -0.0799,0.19726 -0.75409,1.55026 -0.858494,1.72302 -0.06321,0.10441 -0.206678,0.34145 -0.318895,0.527 -0.396842,0.65643 -1.067125,1.49876 -1.720894,2.16301 -0.465025,0.4723 -0.573158,0.54368 -0.519003,0.34198 0.219285,-0.815 0.33452,-1.69231 0.426318,-3.24701 l 0.07014,-1.18538 0.287289,-0.43058 c 0.346594,-0.51936 0.764921,-1.19053 1.023623,-1.64277 0.252666,-0.44141 0.317119,-0.55593 0.561795,-1 0.203659,-0.36968 0.01918,-0.40093 -0.215379,-0.0368 -0.303979,0.47248 -1.341097,1.90272 -1.593052,2.19711 -0.128552,0.15021 -0.16797,0.0888 -0.16797,-0.26226 0,-0.18412 -0.019,-0.51527 -0.04208,-0.73562 -0.08061,-0.76652 -0.126777,-1.14827 -0.172409,-1.42242 -0.0451,-0.2706 -0.04315,-0.28285 0.109731,-0.663 0.157316,-0.39116 0.457212,-1.2596 0.52717,-1.52665 0.02095,-0.0797 0.057,-0.21023 0.0799,-0.29013 0.07617,-0.26403 0.181642,-0.70366 0.243433,-1.0151 0.02255,-0.11399 0.06108,-0.30043 0.08541,-0.41442 0.0245,-0.11399 0.0625,-0.31907 0.08452,-0.45579 0.0222,-0.13672 0.0593,-0.36044 0.08256,-0.49716 0.373405,-2.19604 0.437859,-7.15152 0.08842,-6.80208 -0.04545,0.0454 -0.07031,0.23029 -0.09641,0.71751 -0.03409,0.63974 -0.0744,1.13762 -0.159802,1.98226 -0.05327,0.52664 -0.171876,1.4226 -0.246629,1.86454 -0.02326,0.1369 -0.05984,0.36062 -0.0815,0.49734 -0.04244,0.26865 -0.148616,0.81038 -0.210939,1.07742 -0.136542,0.58453 -0.302559,1.25854 -0.331501,1.34661 -0.01882,0.057 -0.07493,0.24343 -0.124823,0.41442 -0.107246,0.36665 -0.240237,0.77451 -0.290841,0.89081 -0.01971,0.0456 -0.05966,0.15287 -0.08842,0.23828 -0.06872,0.20366 -0.09748,0.19602 -0.159092,-0.0414 -0.09819,-0.37927 -0.109908,-0.40395 -0.191053,-0.40395 -0.04368,0 -0.07546,0.021 -0.07084,0.0465 0.209163,1.13052 0.224078,1.03925 -0.360266,2.19107 -0.476033,0.93822 -0.807002,1.47107 -1.421709,2.28926 -0.215378,0.28676 -0.219994,0.28338 -0.250179,-0.18644 -0.05007,-0.78267 -0.188567,-1.98368 -0.313923,-2.72445 -0.152167,-0.89827 -0.166194,-0.80452 0.176493,-1.18094 0.364172,-0.39986 0.912649,-1.31357 1.107075,-1.84394 0.08292,-0.22621 0.129263,-0.3869 0.239171,-0.82884 0.172232,-0.69266 0.137075,-1.98883 -0.0538,-1.98883 -0.07919,0 -0.112749,0.0728 -0.229405,0.49716 -0.311792,1.13513 -1.740426,3.50535 -1.740426,2.88745 0,-0.0838 -0.409982,-1.71379 -0.583101,-2.31766 -0.02113,-0.074 -0.05558,-0.19532 -0.07653,-0.26936 -0.02095,-0.074 -0.09695,-0.33044 -0.169213,-0.56979 -0.07209,-0.23934 -0.145953,-0.49094 -0.164242,-0.5593 -0.01811,-0.0684 -0.06055,-0.20828 -0.09411,-0.31091 -0.03356,-0.10245 -0.08523,-0.27024 -0.114525,-0.37287 -0.0293,-0.10263 -0.07671,-0.26101 -0.105114,-0.35228 -0.156251,-0.50018 -0.343398,-1.39401 -0.481538,-2.29973 -0.07262,-0.47692 -0.07404,-2.52701 -0.0018,-2.92136 0.02912,-0.15945 0.07333,-0.40182 0.09837,-0.53854 0.0403,-0.22106 0.08381,-0.40199 0.199398,-0.82884 0.197622,-0.73012 0.555757,-1.52221 0.958281,-2.11969 0.443363,-0.65803 -0.16797,-0.2793 -0.902528,0.55895 -0.556823,0.63566 -1.026997,1.42668 -1.247879,2.09945 -0.09428,0.28747 -0.166195,0.60033 -0.256217,1.11542 -0.0554,0.31712 -0.05522,1.64099 1.78e-4,2.02576 0.104937,0.72835 0.133168,0.90253 0.209519,1.29263 0.04457,0.2278 0.09819,0.48899 0.119141,0.58008 0.103694,0.44993 0.216266,0.9265 0.249647,1.05665 0.02042,0.0797 0.04865,0.19158 0.0625,0.24858 0.02876,0.11772 0.23633,0.91229 0.351743,1.34678 0.144177,0.54208 0.60796,2.40218 0.661227,2.65201 0.0293,0.13672 0.06747,0.30451 0.08505,0.37287 0.01758,0.0684 0.05416,0.23615 0.0815,0.37287 0.02717,0.13672 0.0657,0.32334 0.08541,0.41442 0.112039,0.51581 0.163176,0.45349 -1.244328,1.51493 -0.284803,0.21485 -0.52717,0.40004 -0.538534,0.41158 -0.01154,0.0115 -0.179334,0.14151 -0.37305,0.28853 -0.352453,0.26776 -1.162651,0.91017 -1.201714,0.95296 -0.01136,0.0124 -0.179156,0.16193 -0.372872,0.33221 -0.453484,0.39844 -1.274513,1.21947 -1.617555,1.61738 -0.147196,0.17081 -0.278056,0.31996 -0.290485,0.3315 -0.122871,0.11221 -0.761548,0.95775 -1.02753,1.36009 -1.384066,2.09484 -1.928637,4.62486 -1.66958,7.75592 0.04208,0.51013 0.02379,0.51989 -0.253553,0.13566 -0.127842,-0.17703 -0.365592,-0.48047 -0.528413,-0.67419 -0.162998,-0.19372 -0.311615,-0.38956 -0.330613,-0.4352 -0.06871,-0.16566 -0.266515,-1.15803 -0.330436,-1.6575 -0.02326,-0.18235 -0.06108,-0.47674 -0.08416,-0.6543 -0.06197,-0.47781 -0.05007,-1.99949 0.02024,-2.57779 0.121982,-1.00552 0.276458,-1.70953 0.563747,-2.56909 0.123758,-0.37057 0.143645,-0.42454 0.24432,-0.66301 0.02894,-0.0684 0.0673,-0.16157 0.08541,-0.20721 0.01793,-0.0455 0.154831,-0.33452 0.303979,-0.64222 0.691057,-1.42491 1.215919,-2.19232 3.145267,-4.59947 0.895603,-1.11773 1.73208,-2.75357 2.097495,-4.10231 0.0277,-0.10263 0.06658,-0.24236 0.08629,-0.31072 0.05451,-0.18928 0.193716,-0.91265 0.246983,-1.28464 0.02628,-0.18235 0.05682,-0.38743 0.06818,-0.45579 0.19194,-1.15874 0.124823,-3.78004 -0.152168,-5.93755 -0.05256,-0.40909 -0.04954,-1.69266 0.0048,-2.10122 0.05913,-0.44425 0.18111,-1.08896 0.246806,-1.30523 0.0174,-0.057 0.05451,-0.1875 0.08257,-0.29013 0.543683,-1.98386 2.21131,-4.40362 3.969314,-5.75981 0.507284,-0.39134 0.384236,-0.48598 -0.219285,-0.16868 m -0.554336,23.8711 c 0.0142,0.12518 0.04829,0.4233 0.07582,0.66265 0.0989,0.85832 0.128197,1.32174 0.152345,2.40343 l 0.0245,1.09802 -0.222125,0.20934 c -0.803629,0.75782 -1.691775,1.41052 -3.45404,2.53837 -0.634061,0.40572 -1.283569,0.97373 -1.76191,1.54103 -0.125001,0.14808 -0.237041,0.27859 -0.249292,0.29013 -0.0673,0.063 -0.462539,0.64897 -0.642583,0.95278 -0.680048,1.14773 -1.194079,2.60176 -1.428101,4.04033 -0.02592,0.15963 -0.06445,0.39099 -0.08558,0.51457 -0.02113,0.1234 -0.03853,0.30522 -0.03853,0.40394 0,0.21396 -0.04031,0.22852 -0.124113,0.0449 -0.08221,-0.17986 -0.08736,-2.81412 -0.0067,-3.47037 0.179512,-1.46219 0.516517,-2.96167 0.833459,-3.70866 0.01935,-0.0456 0.07688,-0.19478 0.127842,-0.3315 0.128197,-0.34464 0.63477,-1.38709 0.830617,-1.70971 0.08931,-0.14684 0.162288,-0.27521 0.162288,-0.28533 0,-0.0101 0.09588,-0.16212 0.213248,-0.33772 0.824757,-1.23492 1.939645,-2.44622 3.123071,-3.39332 0.688571,-0.55114 1.162296,-0.90412 1.86081,-1.38655 0.545991,-0.37713 0.574578,-0.38086 0.609025,-0.0763 m 3.905037,3.21469 c -0.04812,1.38851 0.04954,1.15999 -0.903061,2.11206 -0.744501,0.74415 -0.859204,0.85015 -1.333284,1.23154 -0.320138,0.25746 -0.400749,0.28871 -0.372517,0.14382 0.01722,-0.0877 0.0451,-0.30486 0.147906,-1.14986 0.02344,-0.19372 0.04279,-0.48935 0.04279,-0.65679 l -1.77e-4,-0.30469 0.486864,-0.48314 c 0.709878,-0.70437 1.195677,-1.35139 1.736697,-2.31287 l 0.159092,-0.28267 0.038,0.2674 c 0.02344,0.16424 0.02255,0.71822 -0.0023,1.4352 m -3.843602,2.55507 c -0.0641,0.4066 -0.213958,1.13566 -0.27486,1.3363 -0.02078,0.0685 -0.07564,0.25497 -0.12216,0.41442 -0.181465,0.62305 -0.162289,0.58932 -0.428093,0.75587 -2.810392,1.76208 -4.559873,3.1497 -5.51265,4.37201 -0.155363,0.1994 -0.28871,0.36258 -0.29599,0.36258 -0.05043,0 0.241657,-0.62235 0.510658,-1.08773 0.04936,-0.0854 0.127842,-0.22283 0.174717,-0.3054 0.196202,-0.34641 1.090385,-1.59553 1.321743,-1.8466 0.03534,-0.0384 0.148262,-0.17152 0.250713,-0.29599 0.288354,-0.34979 1.793338,-1.83595 2.279137,-2.25073 0.714139,-0.60956 2.010669,-1.62022 2.087729,-1.62732 0.02024,-0.002 0.02433,0.0758 0.0091,0.17259 m 3.601946,0.0829 c -0.05788,0.38175 -0.196557,1.03871 -0.312503,1.48136 -0.114702,0.43822 -0.339669,1.1726 -0.412468,1.34678 -0.01918,0.0455 -0.07706,0.19461 -0.128907,0.3315 -0.332211,0.87785 -0.591624,1.35797 -0.793152,1.46877 -0.535871,0.29403 -1.196743,0.606 -1.524515,0.71964 -0.102451,0.0353 -0.338426,0.12003 -0.524507,0.18786 -0.395067,0.14417 -0.414066,0.13796 -0.280365,-0.0909 0.370564,-0.63442 0.830085,-1.66088 1.065527,-2.37946 0.110086,-0.3363 0.15856,-0.40395 0.485622,-0.67827 0.502845,-0.4217 1.507824,-1.47605 2.079384,-2.18166 0.235265,-0.29066 0.318895,-0.37927 0.358668,-0.38104 0.0078,-3.6e-4 0.002,0.0785 -0.01278,0.17543 M 41.2205,191.67534 c 0.986158,0.67472 2.893666,2.78553 3.100699,3.43149 0.05114,0.15944 0.110619,0.33203 0.132281,0.38317 0.02166,0.0513 0.05806,0.13991 0.08079,0.19691 0.02273,0.057 0.05842,0.1456 0.07937,0.19673 0.368966,0.90679 0.957394,1.8791 1.628387,2.69108 0.152877,0.18519 0.156606,0.19655 0.07866,0.23828 -0.168858,0.0904 -0.388852,-0.0193 -1.200471,-0.59819 -2.411596,-1.71983 -3.87432,-3.91445 -4.046196,-6.07072 -0.01367,-0.17099 -0.03462,-0.36204 -0.0467,-0.42472 -0.02575,-0.13476 0.03889,-0.1495 0.193183,-0.044 m 12.554253,1.09429 c 0,0.10955 -0.814282,1.49752 -1.130868,1.92775 -0.719111,0.97692 -0.77078,1.03658 -1.074937,1.2374 -0.947629,0.62607 -2.236168,1.68521 -3.058263,2.51423 -0.188922,0.19034 -0.620033,0.27912 -0.620033,0.12766 0,-0.37198 0.858139,-1.82086 1.613649,-2.7241 0.357957,-0.42791 1.306118,-1.3205 1.776825,-1.6726 0.106712,-0.0797 0.259057,-0.1946 0.338958,-0.25515 0.07972,-0.0606 0.303447,-0.20952 0.497163,-0.33097 1.006933,-0.63104 1.657506,-0.95455 1.657506,-0.82422 m 23.236333,0.27379 c 0.05149,0.01 0.126244,0.01 0.165839,-7.1e-4 0.0396,-0.0105 -0.0027,-0.0185 -0.09375,-0.0181 -0.09126,5.3e-4 -0.123581,0.009 -0.07209,0.0188 m 8.12169,0 c 0.05149,0.01 0.126066,0.01 0.165839,-7.1e-4 0.0396,-0.0105 -0.0027,-0.0185 -0.09375,-0.0181 -0.09126,5.3e-4 -0.123581,0.009 -0.07209,0.0188 m -8.722902,0.65448 c 5.33e-4,0.0913 0.0089,0.12358 0.01882,0.0721 0.0099,-0.0517 0.0096,-0.12624 -7.1e-4,-0.16584 -0.01048,-0.0396 -0.01864,0.003 -0.01811,0.0937 m 8.12169,0 c 5.33e-4,0.0913 0.0089,0.12358 0.01882,0.0721 0.0099,-0.0517 0.0096,-0.12624 -8.88e-4,-0.16584 -0.0103,-0.0396 -0.01847,0.003 -0.01793,0.0937 m -10.961201,0.13353 c 0.07369,0.009 0.204192,0.009 0.29013,3.5e-4 0.08594,-0.009 0.02575,-0.0165 -0.133701,-0.0167 -0.159625,-1.8e-4 -0.229938,0.007 -0.156429,0.0163 m -17.392182,1.02593 c 0,0.011 -0.165484,0.21147 -0.367545,0.44549 -1.189818,1.37821 -2.606555,2.40148 -4.397762,3.17652 -0.538001,0.23278 -0.636191,0.25408 -1.03552,0.22585 -0.413177,-0.0293 -0.468576,-0.0556 -0.29954,-0.14187 0.117188,-0.0597 0.365947,-0.21236 0.858494,-0.52681 0.33523,-0.21414 0.926321,-0.6559 1.28268,-0.95882 0.135832,-0.11541 0.260301,-0.20987 0.276458,-0.20987 0.01634,0 0.191053,-0.0932 0.38832,-0.20721 0.197445,-0.11399 0.365237,-0.20721 0.37305,-0.20721 0.0078,0 0.175605,-0.0932 0.372872,-0.20721 0.197267,-0.11382 0.36435,-0.20703 0.371097,-0.20703 0.0069,0 0.485622,-0.27043 1.063751,-0.60086 0.99042,-0.56588 1.113645,-0.63016 1.113645,-0.58097 m 23.741131,0.59127 -0.142757,0.15536 0.155364,-0.14276 c 0.144709,-0.13299 0.174539,-0.16797 0.142756,-0.16797 -0.0069,0 -0.07671,0.07 -0.155363,0.15537 m -16.823463,0.0414 -0.142757,0.15554 0.155364,-0.14294 c 0.08541,-0.0785 0.155363,-0.14843 0.155363,-0.15536 0,-0.0316 -0.03498,-0.002 -0.16797,0.14276 m 23.950649,0 -0.142756,0.15554 0.155363,-0.14294 c 0.14471,-0.13281 0.17454,-0.16797 0.142757,-0.16797 -0.0069,0 -0.07671,0.07 -0.155364,0.15537 m -21.618244,1.17064 c 0,0.0797 0.0085,0.11239 0.01882,0.0726 0.01048,-0.04 0.01048,-0.10529 0,-0.14506 -0.0103,-0.04 -0.01882,-0.007 -0.01882,0.0724 m 23.950649,0 c 0,0.0797 0.0085,0.11239 0.019,0.0726 0.0103,-0.04 0.0103,-0.10529 0,-0.14506 -0.01048,-0.04 -0.019,-0.007 -0.019,0.0724 m -21.918673,1.326 c 0,0.10263 0.0082,0.14454 0.01793,0.0932 0.0099,-0.0513 0.0099,-0.13512 0,-0.18643 -0.0098,-0.0513 -0.01793,-0.009 -0.01793,0.0932 m -5.386228,0.1037 c 3.55e-4,0.11381 0.0083,0.15554 0.01793,0.0925 0.0096,-0.0629 0.0092,-0.15608 -5.33e-4,-0.20704 -0.0099,-0.051 -0.01776,5.4e-4 -0.0174,0.11453 m 6.465249,0.0414 c 1.78e-4,0.13672 0.008,0.18768 0.01722,0.11328 0.0092,-0.0746 0.0089,-0.18644 -5.32e-4,-0.24876 -0.0094,-0.0621 -0.01705,-0.001 -0.01669,0.13548 m 17.4854,-0.0414 c 3.55e-4,0.11381 0.0083,0.15554 0.01793,0.0925 0.0096,-0.0629 0.0092,-0.15608 -5.32e-4,-0.20704 -0.0099,-0.051 -0.01758,5.4e-4 -0.0174,0.11453 m -22.871806,0.18643 c 0,0.14809 0.0075,0.20863 0.01669,0.13459 0.0092,-0.074 0.0092,-0.19531 0,-0.26935 -0.0092,-0.074 -0.01669,-0.0135 -0.01669,0.13476 m 23.95065,0 c 0,0.14809 0.0075,0.20863 0.01669,0.13459 0.0092,-0.074 0.0092,-0.19531 0,-0.26935 -0.0092,-0.074 -0.01669,-0.0135 -0.01669,0.13476 m -19.644863,0.16567 c 0,0.0797 0.0085,0.11239 0.019,0.0726 0.0103,-0.04 0.0103,-0.10529 0,-0.14507 -0.01048,-0.04 -0.019,-0.007 -0.019,0.0725 m -5.386761,0.12429 c 0,0.0799 0.0085,0.11239 0.01882,0.0726 0.01048,-0.04 0.01048,-0.10512 0,-0.14507 -0.0103,-0.04 -0.01882,-0.007 -0.01882,0.0725 m 23.950649,0 c 0,0.0799 0.0085,0.11239 0.01882,0.0726 0.01048,-0.04 0.01048,-0.10512 0,-0.14507 -0.0103,-0.04 -0.01882,-0.007 -0.01882,0.0725 m -15.291313,0.76865 c -0.0048,0.22905 -0.02717,0.43892 -0.04989,0.46644 -0.02273,0.0274 -0.01278,0.025 0.02219,-0.005 0.05114,-0.0442 0.0609,-0.13601 0.05007,-0.46644 l -0.01367,-0.41123 -0.0087,0.41638 m 3.377157,-0.20064 c 0.03054,0.0218 0.05575,0.17986 0.06481,0.40714 l 0.01474,0.37163 -0.0027,-0.39028 c -0.0021,-0.31019 -0.01545,-0.39382 -0.06481,-0.40714 -0.04421,-0.0121 -0.04776,-0.007 -0.01207,0.0186 m -6.162157,0.48864 c 0.07742,0.0799 0.149859,0.14506 0.1614,0.14506 0.01136,0 -0.04261,-0.0652 -0.119852,-0.14506 -0.07742,-0.0797 -0.150036,-0.14489 -0.1614,-0.14489 -0.01136,0 0.04261,0.0652 0.119852,0.14489"
         inkscape:connector-curvature="0"
         style="fill:#86cd31;fill-rule:evenodd;stroke:none;stroke-width:0.17755821" />
      <path
         id="path2-3"
         d="m 76.751673,193.10539 c -0.303447,0.17294 -0.422766,0.75409 -0.196024,0.95562 0.488463,0.43431 1.322454,-0.18111 1.025044,-0.75622 -0.121273,-0.23438 -0.575822,-0.34375 -0.82902,-0.1994 m 8.121691,0 c -0.303447,0.17294 -0.422767,0.75409 -0.196025,0.95562 0.488463,0.43431 1.322454,-0.18111 1.025044,-0.75622 -0.121272,-0.23438 -0.575821,-0.34375 -0.829019,-0.1994 m -11.488017,0.78942 c -0.02237,0.0284 -0.120917,0.20082 -0.219107,0.38318 -0.275925,0.51296 -0.36648,0.64222 -0.479407,0.68519 -0.05753,0.022 -0.2065,0.0865 -0.331146,0.14347 -0.124646,0.057 -0.242012,0.10369 -0.260478,0.10369 -0.07528,0 -0.162465,0.1559 -0.188389,0.33683 -0.03338,0.23172 -0.01438,0.24326 0.398618,0.24326 0.280897,0 0.290663,0.004 0.270421,0.0932 -0.01154,0.0513 -0.06232,0.28907 -0.112749,0.52842 -0.0506,0.23935 -0.108666,0.50959 -0.129085,0.60085 -0.02042,0.0911 -0.05558,0.25888 -0.0783,0.37288 -0.02273,0.11399 -0.05771,0.28178 -0.07777,0.37305 -0.02006,0.0911 -0.06889,0.31481 -0.108488,0.49716 -0.168325,0.7754 -0.06836,1.34607 0.279477,1.59802 0.390451,0.28303 0.970533,0.3228 1.657506,0.11417 l 0.155363,-0.0472 v -0.39151 c 0,-0.38495 -0.0016,-0.39116 -0.09322,-0.36932 -0.477986,0.11399 -0.604408,0.12109 -0.763678,0.0433 -0.334342,-0.16318 -0.332211,-0.29279 0.03285,-1.94195 0.02521,-0.114 0.06037,-0.28179 0.07813,-0.37288 0.01793,-0.0913 0.05309,-0.25905 0.0783,-0.37305 0.02521,-0.11381 0.06907,-0.31907 0.09766,-0.45579 l 0.05202,-0.24858 0.607072,-0.0114 c 0.735623,-0.0138 0.694252,0.0209 0.808245,-0.68271 l 0.02521,-0.15537 h -0.627136 c -0.439634,0 -0.626958,-0.014 -0.626958,-0.047 0,-0.0258 0.01705,-0.11435 0.03782,-0.19674 0.04812,-0.19016 0.117366,-0.51882 0.15199,-0.71964 l 0.02663,-0.15536 H 73.73638 c -0.198865,0 -0.324932,0.0186 -0.351033,0.0518 m -9.431359,1.07192 c -1.888154,0.6385 -2.604601,4.43132 -0.953665,5.04905 0.575111,0.21502 1.253028,0.0115 1.811804,-0.54404 0.253198,-0.25178 0.289064,-0.25231 0.25888,-0.004 -0.01296,0.10831 -0.02876,0.27149 -0.0348,0.36258 l -0.01119,0.16584 0.369144,0.0121 c 0.409094,0.0133 0.43484,0.001 0.48065,-0.22639 0.04794,-0.23739 0.210406,-1.00533 0.252842,-1.19461 0.02024,-0.0911 0.05558,-0.25906 0.0783,-0.37287 0.02255,-0.11399 0.05806,-0.28179 0.07866,-0.37305 0.07919,-0.35015 0.130505,-0.58772 0.170101,-0.78729 0.02255,-0.114 0.05771,-0.28179 0.07813,-0.37288 0.02042,-0.0913 0.0783,-0.36151 0.128908,-0.60085 0.05043,-0.23935 0.10902,-0.5096 0.13015,-0.60086 0.02095,-0.0911 0.04936,-0.24503 0.06303,-0.3418 l 0.02468,-0.17614 h -0.373228 c -0.421878,0 -0.409627,-0.008 -0.548655,0.35228 -0.14684,0.38086 -0.164063,0.38707 -0.352808,0.1266 -0.366658,-0.50604 -1.010129,-0.6907 -1.650936,-0.47391 m 5.611905,-0.0241 c -1.152708,0.28072 -1.931301,1.37075 -2.069974,2.89775 -0.165129,1.81535 1.082572,2.70243 2.915861,2.07317 0.311437,-0.10689 0.310727,-0.10583 0.310727,-0.56446 0,-0.40643 -0.02983,-0.48189 -0.147018,-0.3727 -0.02166,0.0201 -0.15128,0.0749 -0.288,0.12181 -1.227992,0.42046 -1.878921,-0.0826 -1.720539,-1.32938 0.201884,-1.58844 1.070321,-2.30755 2.296538,-1.902 0.31268,0.10351 0.322268,0.10014 0.392759,-0.1385 0.02006,-0.0684 0.07582,-0.22195 0.12358,-0.34109 l 0.08683,-0.21697 -0.113104,-0.0554 c -0.441055,-0.21627 -1.276466,-0.2967 -1.787656,-0.17223 m 11.160599,0.0138 c -0.395955,0.13512 -0.908921,0.53817 -1.08204,0.85014 -0.05575,0.1005 -0.14329,0.0487 -0.119319,-0.0705 0.01012,-0.0499 0.0293,-0.24449 0.04261,-0.43253 l 0.02433,-0.3418 h -0.392226 c -0.436438,0 -0.422056,-0.009 -0.484556,0.29723 -0.02486,0.12145 -0.06197,0.29528 -0.08257,0.38655 -0.0206,0.0911 -0.05593,0.25888 -0.07848,0.37287 -0.02273,0.11399 -0.05824,0.28179 -0.07883,0.37287 -0.07901,0.35015 -0.130328,0.58772 -0.169924,0.7873 -0.02273,0.11399 -0.05788,0.28178 -0.0783,0.37305 -0.02042,0.0911 -0.0783,0.3615 -0.128907,0.60085 -0.05043,0.23917 -0.108311,0.5096 -0.12873,0.60068 -0.02042,0.0913 -0.05575,0.25906 -0.0783,0.37305 -0.02273,0.11399 -0.06037,0.29102 -0.08363,0.39365 -0.02344,0.10245 -0.05398,0.25693 -0.068,0.34304 l -0.02539,0.15679 0.533385,-0.0117 c 0.497518,-0.0108 0.534273,-0.0172 0.544749,-0.0945 0.01456,-0.10636 0.08825,-0.48509 0.140981,-0.72515 0.05948,-0.27078 0.10476,-0.48509 0.161578,-0.76652 0.189455,-0.9368 0.25746,-1.16052 0.504621,-1.65751 0.389562,-0.78321 1.041556,-1.18893 1.534458,-0.95508 0.32866,0.15589 0.352985,0.4794 0.118608,1.57654 -0.04368,0.20508 -0.120739,0.56872 -0.170988,0.80806 -0.05043,0.23935 -0.108311,0.5096 -0.12873,0.60086 -0.02024,0.0911 -0.05558,0.25888 -0.0783,0.37287 -0.02255,0.114 -0.06001,0.2912 -0.0831,0.39365 -0.0229,0.10263 -0.05344,0.24769 -0.06783,0.32245 l -0.0261,0.13601 0.533384,-0.0117 0.533385,-0.0115 0.02717,-0.14507 c 0.01509,-0.0797 0.04812,-0.23828 0.07351,-0.35228 0.02521,-0.11399 0.06463,-0.30042 0.08718,-0.41442 0.02255,-0.11381 0.05984,-0.29101 0.08274,-0.39364 0.0229,-0.10245 0.06019,-0.27966 0.08292,-0.39365 0.02255,-0.11381 0.05984,-0.29102 0.08274,-0.39365 0.0229,-0.10245 0.05984,-0.27965 0.08185,-0.39364 0.02202,-0.11382 0.07014,-0.33772 0.10689,-0.49717 0.346949,-1.50746 -0.43555,-2.47533 -1.662832,-2.05647 m 7.178145,0.0103 c -1.888154,0.6385 -2.604424,4.43132 -0.953665,5.04905 0.575111,0.21502 1.253028,0.0115 1.811982,-0.54404 0.25302,-0.25178 0.288887,-0.25231 0.25888,-0.004 -0.01314,0.10831 -0.02894,0.27149 -0.03498,0.36258 l -0.01119,0.16584 0.369144,0.0121 c 0.409094,0.0133 0.43484,0.001 0.480828,-0.22639 0.04776,-0.23739 0.210228,-1.00533 0.252665,-1.19461 0.02042,-0.0911 0.05558,-0.25906 0.0783,-0.37287 0.02255,-0.11399 0.05806,-0.28179 0.07866,-0.37305 0.07919,-0.35015 0.130506,-0.58772 0.170101,-0.78729 0.02255,-0.114 0.05771,-0.28179 0.07813,-0.37288 0.02042,-0.0913 0.07848,-0.36151 0.128907,-0.60085 0.05043,-0.23935 0.109021,-0.5096 0.13015,-0.60086 0.02095,-0.0911 0.04936,-0.24503 0.06303,-0.3418 l 0.02468,-0.17614 H 90.45704 c -0.421879,0 -0.409627,-0.008 -0.548478,0.35228 -0.147018,0.38086 -0.164241,0.38707 -0.352985,0.1266 -0.366658,-0.50604 -1.009952,-0.6907 -1.650937,-0.47391 m -11.689722,0.0332 c -0.01296,0.0211 -0.04386,0.1376 -0.06872,0.25905 -0.02486,0.12145 -0.06197,0.29528 -0.08256,0.38655 -0.0206,0.0911 -0.05593,0.25888 -0.07848,0.37287 -0.0396,0.19958 -0.09091,0.43715 -0.170101,0.78729 -0.0206,0.0911 -0.05593,0.25906 -0.07866,0.37288 -0.02255,0.11399 -0.05788,0.28178 -0.0783,0.37305 -0.02042,0.0911 -0.0783,0.3615 -0.128907,0.60085 -0.05043,0.23917 -0.108488,0.5096 -0.12873,0.60068 -0.02042,0.0913 -0.05575,0.25906 -0.0783,0.37305 -0.02273,0.11399 -0.06037,0.29102 -0.08363,0.39365 -0.02344,0.10245 -0.0538,0.25639 -0.06783,0.3418 l -0.02521,0.15536 h 0.522554 0.522553 l 0.02397,-0.11381 c 0.01314,-0.0627 0.04261,-0.19798 0.06587,-0.30043 0.07085,-0.31463 0.112749,-0.51155 0.141514,-0.663 0.01509,-0.0799 0.04421,-0.21964 0.06481,-0.31091 0.02042,-0.0911 0.05575,-0.25888 0.07848,-0.37287 0.02255,-0.11399 0.05788,-0.28179 0.0783,-0.37287 0.02042,-0.0913 0.0783,-0.36151 0.128908,-0.60086 0.05043,-0.23935 0.10831,-0.50977 0.128729,-0.60086 0.02042,-0.0913 0.05558,-0.25905 0.0783,-0.37287 0.02255,-0.11399 0.05948,-0.29119 0.08185,-0.39365 0.233844,-1.06872 0.273617,-0.95313 -0.32795,-0.95313 -0.272197,0 -0.505508,0.0172 -0.51847,0.0382 m 8.12169,0 c -0.01296,0.0211 -0.04386,0.1376 -0.06872,0.25905 -0.02486,0.12145 -0.06197,0.29528 -0.08256,0.38655 -0.0206,0.0911 -0.05593,0.25888 -0.07848,0.37287 -0.0396,0.19958 -0.09091,0.43715 -0.170101,0.78729 -0.0206,0.0911 -0.05593,0.25906 -0.07866,0.37288 -0.02255,0.11399 -0.05788,0.28178 -0.0783,0.37305 -0.02042,0.0911 -0.0783,0.3615 -0.128907,0.60085 -0.05043,0.23917 -0.108488,0.5096 -0.128729,0.60068 -0.02042,0.0913 -0.05575,0.25906 -0.07848,0.37305 -0.02255,0.11399 -0.06019,0.29102 -0.08363,0.39365 -0.02326,0.10245 -0.0538,0.25639 -0.06765,0.3418 l -0.02521,0.15536 h 0.522554 0.522554 l 0.02397,-0.11381 c 0.01314,-0.0627 0.04261,-0.19798 0.06587,-0.30043 0.07085,-0.31463 0.112749,-0.51155 0.141514,-0.663 0.01509,-0.0799 0.04421,-0.21964 0.06463,-0.31091 0.0206,-0.0911 0.05593,-0.25888 0.07866,-0.37287 0.02255,-0.11399 0.05788,-0.28179 0.0783,-0.37287 0.02042,-0.0913 0.0783,-0.36151 0.128907,-0.60086 0.05043,-0.23935 0.10831,-0.50977 0.12873,-0.60086 0.02042,-0.0913 0.05557,-0.25905 0.0783,-0.37287 0.02255,-0.11399 0.0593,-0.29119 0.08185,-0.39365 0.233844,-1.06872 0.273617,-0.95313 -0.32795,-0.95313 -0.272197,0 -0.505508,0.0172 -0.51847,0.0382 m -19.227246,0.8924 c 0.760304,0.57991 0.08487,2.90344 -0.957216,3.29335 -0.793153,0.29688 -1.259065,-0.63477 -0.889922,-1.77913 0.01847,-0.057 0.05753,-0.1875 0.08683,-0.29013 0.300961,-1.05274 1.181828,-1.66532 1.760312,-1.22409 m 23.95065,0 c 0.760304,0.57991 0.08505,2.90344 -0.957217,3.29335 -0.793152,0.29688 -1.259065,-0.63477 -0.889922,-1.77913 0.01847,-0.057 0.05753,-0.1875 0.08683,-0.29013 0.300962,-1.05274 1.181828,-1.66532 1.760313,-1.22409"
         inkscape:connector-curvature="0"
         style="fill:#212a61;fill-rule:evenodd;stroke:none;stroke-width:0.17755821" />
    </g>
  </g>
</svg>
